<?xml version="1.0" encoding="utf-8"?>
<!-- Generator: Adobe Illustrator 27.4.1, SVG Export Plug-In . SVG Version: 6.00 Build 0)  -->
<svg version="1.1" id="Layer_1" xmlns="http://www.w3.org/2000/svg" xmlns:xlink="http://www.w3.org/1999/xlink" x="0px" y="0px"
	 viewBox="0 0 1920 1080" style="enable-background:new 0 0 1920 1080;" xml:space="preserve">
<style type="text/css">
	.st0{fill:#42210B;}
</style>
<path class="st0" d="M1425.3,693.85c-19.94-19.94-52.23-19.94-72.17,0l-106.68,106.68c-12.98,12.98-26.54,19.46-40.67,19.44
	c-14.16,0-27.46-6.23-39.92-18.68c-12.55-12.55-18.78-25.95-18.69-40.22c0.09-14.25,6.54-27.74,19.3-40.51l106.68-106.68
	c9.98-9.96,14.96-23.03,14.96-36.1c0-13.05-4.98-26.09-14.96-36.07c-19.94-19.94-52.23-19.94-72.17,0l-103.36,103.36
	c-11.49,11.49-22.44,26.92-32.86,46.26c-6.49,12.03-10.33,26.16-11.56,42.37c-1.2,16.23,0.33,31.24,4.65,45.01
	c4.32,13.78,12.41,28.19,24.28,43.27c11.87,15.05,23.5,28.26,34.89,39.66c19.68,19.7,39.16,33.95,58.41,42.8
	c13.82,6.39,29.94,9.58,48.36,9.6c18,0,35.86-4.01,52.11-11.77c16.73-8,32.09-18.94,46.03-32.89l103.36-103.36
	C1445.24,746.09,1445.24,713.79,1425.3,693.85"/>
<path class="st0" d="M1887.08,819.89c0,17.16-4,32.62-11.97,46.3c-7.97,13.71-18.87,24.55-32.74,32.52
	c-8.58,4.95-21.53,8.58-38.82,10.84c-23.03,2.99-38.33,4.49-45.84,4.49h-130.52c-25.44,0-46.05-20.58-46.05-46.02V629.07
	c0-25.41,20.61-46.02,46.05-46.02h145.43c31.91,0,56.41,7.91,73.48,23.7c17.1,15.82,25.62,35.4,25.62,58.73
	c0,19.54-6.08,36.34-18.26,50.33c-8.15,9.35-20.03,16.71-35.7,22.14c23.79,5.71,41.29,15.54,52.5,29.47
	C1881.46,781.31,1887.08,798.84,1887.08,819.89"/>
<path class="st0" d="M898.62,694.09c8.89,8.89,13.3,20.53,13.3,32.14c0,11.66-4.43,23.28-13.32,32.17L756.27,900.72
	c-17.76,17.76-46.53,17.76-64.28,0L495.16,703.89c-10.19-10.19-14.55-24.05-13.01-37.35c0.17-14.34,5.71-28.6,16.67-39.56
	c10.65-10.65,24.41-16.17,38.33-16.65c0.65-0.02,1.3-0.05,1.93-0.05c14.58,0.02,29.16,5.59,40.26,16.7l119.03,119.03
	c1.47,1.47,2.96,2.87,4.48,4.19l37.68,37.68l93.78-93.78C852.07,676.36,880.87,676.33,898.62,694.09"/>
<path class="st0" d="M340.97,827.73c0,5.53-0.98,11.18-3.05,16.61c-0.12,0.27-0.28,0.52-0.46,0.8c-3.45,6.41-7.3,12.37-11.54,17.89
	c-12.95,16.86-29.01,29.56-48.22,38.14c-19.18,8.58-43.61,12.86-73.27,12.86c-35.97,0-65.35-5.22-88.17-15.67
	s-42.48-28.83-59.03-55.15C40.67,816.89,32.4,783.18,32.4,742.13c0-54.76,14.54-96.84,43.67-126.25
	c29.13-29.41,70.33-44.1,123.62-44.1c41.68,0,74.45,8.43,98.34,25.29c8.4,5.92,16.03,13.01,22.9,21.19l4.52,5.68l0.03,0.03
	c10.63,18.66,6.5,42.78-10.72,56.71c-0.52,0.43-1.04,0.83-1.56,1.22c-0.03,0-0.06,0.03-0.06,0.03c-7.91,5.83-17.19,8.7-26.42,8.7
	c-9.07,0-18.11-2.75-25.71-8.15c-0.8-0.55-1.56-1.13-2.29-1.71c-0.03-0.03-0.06-0.03-0.06-0.06c-0.67-0.52-1.31-1.07-1.93-1.62
	c-0.09-0.09-0.18-0.15-0.27-0.24c-0.37-0.34-0.73-0.7-1.07-1.04c-0.12-0.09-0.18-0.18-0.31-0.27c-0.06-0.06-0.12-0.15-0.18-0.21
	c-0.4-0.43-0.8-0.82-1.19-1.25c-0.4-0.46-0.8-0.89-1.19-1.38c-0.18-0.18-0.34-0.4-0.52-0.61c-0.3-0.4-0.64-0.82-0.95-1.25
	c-0.06-0.06-0.09-0.09-0.12-0.15c-5.71-7.82-12.7-13.83-20.98-18.05c-8.31-4.21-17.56-6.32-27.79-6.32
	c-23.18,0-40.92,9.31-53.29,27.97c-9.31,13.8-13.99,35.55-13.99,65.14c0,36.71,5.56,61.84,16.71,75.46
	c11.15,13.59,26.78,20.4,46.97,20.4c19.58,0,34.36-5.5,44.37-16.49c3.18-3.48,6.08-7.48,8.64-11.97c0.34-0.52,0.64-1.07,0.95-1.62
	c0.7-1.19,1.34-2.41,1.96-3.66c0.27-0.58,0.58-1.13,0.88-1.68c5.8-10.44,15.85-17.38,27.03-19.3c0.09-0.03,0.15-0.06,0.25-0.06
	c9.31-2.41,19.45-1.99,29.07,1.89c4.95,1.99,9.31,4.7,13.13,8.03c6.54,5.65,11.3,13.01,13.87,21.07l0.24,0.7
	C340.26,818.54,340.97,823.12,340.97,827.73"/>
<path class="st0" d="M1824.17,384.07h-139.58v-55.18h120.82c22.18,0,40.17-17.98,40.17-40.17c0-22.19-17.99-40.17-40.17-40.17
	h-120.82V206.8h133.29c22.18,0,40.17-17.98,40.17-40.17c0-22.18-17.99-40.17-40.17-40.17h-180.42c-1.1-0.07-2.2-0.17-3.32-0.17
	h-2.31c-27.86,0-50.46,22.59-50.46,50.45v231.18l-0.2,0l-0.04,0.01c-0.01,0.17,0.01,0.32,0,0.49c0.02,1.25,0.14,2.47,0.23,3.69v1.75
	c0,24.63,17.66,45.11,41.01,49.54c2.83,0.63,5.77,1,8.79,1h0.83c2.24,0.25,4.52,0.38,6.83,0.37c2.03-0.02,4.04-0.15,6.02-0.37
	h179.33c22.18,0,40.17-17.98,40.17-40.17C1864.34,402.05,1846.35,384.07,1824.17,384.07"/>
<path class="st0" d="M653.09,464.78h-3.05c-31.06,0-46.33-30.81-51.15-46.33c-1.19-3.82-1.74-6.69-1.74-7.97
	c0,8.8-2.32,16.34-6.05,22.75c-0.03,0.09-0.09,0.15-0.15,0.25c-11.82,17.07-30.69,28.13-51.92,28.13
	c-21.22,0-40.07-11.06-51.88-28.13c-0.06-0.09-0.12-0.15-0.15-0.25c-3.73-6.41-6.05-13.96-6.05-22.75c0,1.28-0.55,4.15-1.74,7.97
	c-4.83,15.51-20.1,46.33-51.15,46.33H425c-34.3,0-58.02-34.27-45.96-66.36l82.12-218.57l2.47-6.6c3.09-7.18,7.18-13.83,12.03-19.79
	l0.89-0.98c12.89-15.33,31.27-25.96,52.13-28.86c0,0,5.77-0.58,9.65-0.7v-0.03h1.43v0.03c3.88,0.12,9.65,0.7,9.65,0.7
	c20.86,2.9,39.24,13.53,52.13,28.86l0.89,0.98c4.86,5.95,8.95,12.61,12.03,19.79l2.47,6.6l82.12,218.57
	C711.12,430.51,687.39,464.78,653.09,464.78"/>
<path class="st0" d="M321.91,228.34c0,34.45-10.35,61.35-31.06,80.75c-20.74,19.39-52.34,29.1-94.85,29.1h-57.69v73.63
	c0,13.28-4.89,25.41-12.98,34.69c-2.29,2.66-4.86,5.07-7.63,7.21c-3.24,2.53-6.78,4.67-10.57,6.35c-2.44,1.13-5.01,2.05-7.63,2.78
	c-3.39,0.95-6.93,1.56-10.57,1.8c-1.19,0.09-2.38,0.12-3.57,0.12c-1.37,0-2.72-0.06-4.06-0.15c-3.64-0.27-7.18-0.92-10.57-1.92
	c-2.63-0.73-5.19-1.68-7.63-2.84c-3.79-1.74-7.33-3.94-10.57-6.5c-1.62-1.28-3.14-2.63-4.61-4.09c-1.07-1.07-2.08-2.17-3.02-3.3
	c-7.79-9.22-12.49-21.13-12.49-34.14V176.55c0-12.98,4.7-24.92,12.49-34.11c2.29-2.72,4.82-5.19,7.63-7.39
	c3.24-2.56,6.78-4.76,10.57-6.5c2.44-1.16,5.01-2.11,7.63-2.84c3.39-1.01,6.93-1.65,10.57-1.89c1.34-0.12,2.69-0.18,4.06-0.18
	h122.28c38.17,0,66.76,9.07,85.75,27.21C312.41,169,321.91,194.81,321.91,228.34"/>
<path class="st0" d="M1070.66,117.79c-29.04-0.02-52.6,23.54-52.58,52.58v155.51c0,18.92-5.17,33.53-15.48,43.84
	c-10.33,10.29-24.56,15.45-42.71,15.45c-18.32,0-32.61-5.22-42.94-15.68c-10.31-10.47-15.46-25.01-15.48-43.61V170.37
	c0.02-14.53-5.87-27.66-15.4-37.18c-9.52-9.53-22.65-15.42-37.18-15.4c-29.04-0.02-52.6,23.54-52.6,52.6v150.64
	c0,16.75,3.25,35.98,9.78,57.69c4.02,13.49,11.51,26.59,22.45,39.3c10.94,12.71,22.99,22.52,36.18,29.41
	c13.18,6.91,29.59,11.51,49.23,13.86c19.62,2.3,37.74,3.47,54.34,3.49c28.71-0.02,53.3-3.82,73.77-11.41
	c14.73-5.42,28.83-14.85,42.24-28.26c13.43-13.4,23.27-29.07,29.56-46.98c6.29-17.9,9.43-36.92,9.44-57.09l-0.02-150.66
	C1123.26,141.33,1099.72,117.79,1070.66,117.79"/>
<path class="st0" d="M1488,298.47c-8.97-15.12-23.38-27.84-43.24-38.15c-19.86-10.31-52.8-20.6-98.8-30.86
	c-18.59-4.01-30.34-8.28-35.27-12.83c-5.1-4.36-7.62-9.27-7.57-14.72c0.05-7.43,3.21-13.73,9.44-18.9
	c6.25-5.14,15.5-7.67,27.77-7.57c14.89,0.09,26.54,3.68,34.94,10.71c3.33,2.81,6.2,6.25,8.61,10.38
	c8.38,14.27,24.28,22.41,40.81,21.56l2.05-0.09c41.76-2.15,58.44-55.72,24.72-80.47c-0.21-0.17-0.45-0.33-0.66-0.5
	c-22.79-16.37-55.96-24.72-99.56-25.05c-35.53-0.26-63.51,3.99-83.99,12.76c-20.45,8.78-35.84,20.9-46.1,36.43
	c-10.29,15.52-15.5,32.04-15.62,49.57c-0.19,26.68,9.58,48.72,29.3,66.08c19.58,17.36,52.45,31.42,98.59,42.16
	c28.19,6.42,46.15,13.14,53.86,20.17c7.69,7.03,11.51,14.98,11.44,23.83c-0.07,9.3-4.2,17.46-12.39,24.47
	c-8.21,6.98-19.82,10.43-34.87,10.33c-20.17-0.17-35.65-7.17-46.38-21.07c-2.22-2.85-4.15-6.13-5.85-9.86
	c-7.6-16.63-25.1-26.47-43.36-25.46l-6.96,0.38c-35.01,1.93-54.47,41.31-34.85,70.38c4.36,6.46,9.37,12.53,14.98,18.24
	c22.18,22.51,62.26,33.97,120.3,34.4c33.05,0.24,60.47-4.32,82.24-13.71c21.8-9.39,38.81-23.26,51.05-41.64
	c12.22-18.35,18.43-38.48,18.59-60.37C1501.38,330.43,1496.97,313.57,1488,298.47"/>
</svg>
