<?xml version="1.0" encoding="utf-8"?>
<!-- Generator: Adobe Illustrator 27.8.1, SVG Export Plug-In . SVG Version: 6.00 Build 0)  -->
<svg version="1.1" id="Layer_1" xmlns="http://www.w3.org/2000/svg" xmlns:xlink="http://www.w3.org/1999/xlink" x="0px" y="0px"
	 viewBox="0 0 50 50" style="enable-background:new 0 0 50 50;" xml:space="preserve">
<style type="text/css">
	.st0{fill:none;stroke:#FFE100;stroke-width:3;stroke-miterlimit:10;}
	.st1{fill:#FFE100;stroke:#FFE100;stroke-miterlimit:10;}
</style>
<polygon class="st0" points="-250.41,-0.19 -247.54,-9.08 -239.86,4.16 -230.42,6.83 -239.73,11.65 -241.72,18.43 -248.5,13.19 
	-258.06,21.51 -255.9,8.56 -261.76,-2.23 "/>
<polygon class="st0" points="-157.78,4.52 -147.03,2.22 -138.79,-5.83 -129.79,4.52 -119.79,6.81 -131.18,13.71 -129.34,28.08 
	-138.95,16.58 -149.18,24.63 -149.18,13.84 "/>
<polygon class="st0" points="22.06,35.74 9.5,29.51 22.06,20.79 23.32,10.42 29.47,17.5 40.22,17.5 32.03,23.08 40.22,35.87 
	29.98,32.6 19.23,41.83 "/>
<polygon class="st0" points="-98.26,3.16 -91.44,-8 -85.34,3.16 -75.65,7.09 -82.79,10.8 -86.95,26.34 -93.29,20.26 -99.7,26.34 
	-104.36,16.01 -111.54,9.17 "/>
<polygon class="st0" points="-56.58,20.54 -68.9,17.88 -62.14,10.31 -70.44,-4.96 -57.6,4.58 -48.12,-5.21 -48.97,7.04 
	-37.83,13.71 -46.61,15.12 -48.06,25.56 "/>
<polygon class="st1" points="-245.39,53.14 -242.52,44.26 -234.84,57.5 -225.4,60.16 -234.71,64.98 -236.7,71.76 -243.48,66.52 
	-253.04,74.84 -250.88,61.9 -256.74,51.11 "/>
<polygon class="st1" points="-156.76,45.85 -146.01,43.55 -137.77,35.5 -128.77,45.85 -118.77,48.15 -130.16,55.04 -128.32,69.41 
	-137.93,57.92 -148.16,65.96 -148.16,55.18 "/>
<polygon class="st1" points="22.08,35.74 9.52,29.51 22.08,20.79 23.34,10.42 29.49,17.5 40.24,17.5 32.05,23.08 40.24,35.87 
	30,32.6 19.25,41.83 "/>
<polygon class="st1" points="-97.24,44.49 -90.42,33.33 -84.32,44.49 -74.63,48.43 -81.77,52.13 -85.93,67.67 -92.27,61.59 
	-98.68,67.67 -103.34,57.34 -110.52,50.5 "/>
<polygon class="st1" points="-55.56,61.87 -67.88,59.21 -61.12,51.64 -69.42,36.37 -56.58,45.91 -47.1,36.13 -47.95,48.37 
	-36.81,55.04 -45.59,56.45 -47.04,66.89 "/>
</svg>
