<?xml version="1.0" encoding="utf-8"?>
<!-- Generator: Adobe Illustrator 27.4.1, SVG Export Plug-In . SVG Version: 6.00 Build 0)  -->
<svg version="1.1" id="Layer_1" xmlns="http://www.w3.org/2000/svg" xmlns:xlink="http://www.w3.org/1999/xlink" x="0px" y="0px"
	 viewBox="0 0 50 50" style="enable-background:new 0 0 50 50;" xml:space="preserve">
<style type="text/css">
	.st0{fill:none;stroke:#FFFF00;stroke-miterlimit:10;}
	.st1{fill:#FFFF00;stroke:#FFFF00;stroke-miterlimit:10;}
</style>
<polygon class="st0" points="147.41,-27.5 160.77,-49.37 172.73,-27.5 191.73,-19.79 177.73,-12.52 169.57,17.94 157.14,6.02 
	144.59,17.94 135.45,-2.32 121.38,-15.71 "/>
<polygon class="st1" points="149.41,53.5 162.77,31.63 174.73,53.5 193.73,61.21 179.73,68.48 171.57,98.94 159.14,87.02 
	146.59,98.94 137.45,78.68 123.38,65.29 "/>
<polygon class="st0" points="19.08,18.13 27.43,4.48 34.89,18.13 46.75,22.95 38.01,27.49 32.92,46.5 25.16,39.06 17.32,46.5 
	11.61,33.86 2.83,25.49 "/>
</svg>
