<?xml version="1.0" encoding="utf-8"?>
<!-- Generator: Adobe Illustrator 27.8.1, SVG Export Plug-In . SVG Version: 6.00 Build 0)  -->
<svg version="1.1" id="Layer_1" xmlns="http://www.w3.org/2000/svg" xmlns:xlink="http://www.w3.org/1999/xlink" x="0px" y="0px"
	 viewBox="0 0 50 50" style="enable-background:new 0 0 50 50;" xml:space="preserve">
<style type="text/css">
	.st0{fill:none;stroke:#FFE100;stroke-width:3;stroke-miterlimit:10;}
	.st1{fill:#FFE100;stroke:#FFE100;stroke-miterlimit:10;}
</style>
<polygon class="st0" points="-250.41,-0.19 -247.54,-9.08 -239.86,4.16 -230.42,6.83 -239.73,11.65 -241.72,18.43 -248.5,13.19 
	-258.06,21.51 -255.9,8.56 -261.76,-2.23 "/>
<polygon class="st0" points="-173.11,4.52 -162.35,2.22 -154.11,-5.83 -145.11,4.52 -135.11,6.81 -146.5,13.71 -144.66,28.08 
	-154.27,16.58 -164.5,24.63 -164.5,13.84 "/>
<polygon class="st0" points="-208.94,20.74 -221.5,14.51 -208.94,5.79 -207.68,-4.58 -201.53,2.5 -190.78,2.5 -198.97,8.08 
	-190.78,20.87 -201.02,17.6 -211.77,26.83 "/>
<polygon class="st0" points="-103.26,2.16 -96.44,-9 -90.34,2.16 -80.65,6.09 -87.79,9.8 -91.95,25.34 -98.29,19.26 -104.7,25.34 
	-109.36,15.01 -116.54,8.17 "/>
<polygon class="st0" points="22.42,35.54 10.1,32.88 16.86,25.31 8.56,10.04 21.4,19.58 30.88,9.79 30.03,22.04 41.17,28.71 
	32.39,30.12 30.94,40.56 "/>
<polygon class="st1" points="-245.39,53.14 -242.52,44.26 -234.84,57.5 -225.4,60.16 -234.71,64.98 -236.7,71.76 -243.48,66.52 
	-253.04,74.84 -250.88,61.9 -256.74,51.11 "/>
<polygon class="st1" points="-173.11,52.85 -162.35,50.55 -154.11,42.5 -145.11,52.85 -135.11,55.15 -146.5,62.04 -144.66,76.41 
	-154.27,64.92 -164.5,72.96 -164.5,62.18 "/>
<polygon class="st1" points="-201.92,68.74 -214.48,62.51 -201.92,53.79 -200.66,43.42 -194.51,50.5 -183.76,50.5 -191.95,56.08 
	-183.76,68.87 -194,65.6 -204.75,74.83 "/>
<polygon class="st1" points="-103.24,51.49 -96.42,40.33 -90.32,51.49 -80.63,55.43 -87.77,59.13 -91.93,74.67 -98.27,68.59 
	-104.68,74.67 -109.34,64.34 -116.52,57.5 "/>
<polygon class="st1" points="22.44,36.87 10.12,34.21 16.88,26.64 8.58,11.37 21.42,20.91 30.9,11.13 30.05,23.37 41.19,30.04 
	32.41,31.45 30.96,41.89 "/>
</svg>
