<?xml version="1.0" encoding="utf-8"?>
<!-- Generator: Adobe Illustrator 27.8.1, SVG Export Plug-In . SVG Version: 6.00 Build 0)  -->
<svg version="1.1" id="Layer_1" xmlns="http://www.w3.org/2000/svg" xmlns:xlink="http://www.w3.org/1999/xlink" x="0px" y="0px"
	 viewBox="0 0 50 50" style="enable-background:new 0 0 50 50;" xml:space="preserve">
<style type="text/css">
	.st0{fill:none;stroke:#FFE100;stroke-width:3;stroke-miterlimit:10;}
	.st1{fill:#FFE100;stroke:#FFE100;stroke-miterlimit:10;}
</style>
<polygon class="st0" points="-250.41,-0.19 -247.54,-9.08 -239.86,4.16 -230.42,6.83 -239.73,11.65 -241.72,18.43 -248.5,13.19 
	-258.06,21.51 -255.9,8.56 -261.76,-2.23 "/>
<polygon class="st0" points="-173.11,4.52 -162.35,2.22 -154.11,-5.83 -145.11,4.52 -135.11,6.81 -146.5,13.71 -144.66,28.08 
	-154.27,16.58 -164.5,24.63 -164.5,13.84 "/>
<polygon class="st0" points="-208.94,20.74 -221.5,14.51 -208.94,5.79 -207.68,-4.58 -201.53,2.5 -190.78,2.5 -198.97,8.08 
	-190.78,20.87 -201.02,17.6 -211.77,26.83 "/>
<polygon class="st0" points="20.74,19.16 27.56,8 33.66,19.16 43.35,23.09 36.21,26.8 32.05,42.34 25.71,36.26 19.3,42.34 
	14.64,32.01 7.46,25.17 "/>
<polygon class="st0" points="-56.58,20.54 -68.9,17.88 -62.14,10.31 -70.44,-4.96 -57.6,4.58 -48.12,-5.21 -48.97,7.04 
	-37.83,13.71 -46.61,15.12 -48.06,25.56 "/>
<polygon class="st1" points="-245.39,53.14 -242.52,44.26 -234.84,57.5 -225.4,60.16 -234.71,64.98 -236.7,71.76 -243.48,66.52 
	-253.04,74.84 -250.88,61.9 -256.74,51.11 "/>
<polygon class="st1" points="-173.11,52.85 -162.35,50.55 -154.11,42.5 -145.11,52.85 -135.11,55.15 -146.5,62.04 -144.66,76.41 
	-154.27,64.92 -164.5,72.96 -164.5,62.18 "/>
<polygon class="st1" points="-201.92,68.74 -214.48,62.51 -201.92,53.79 -200.66,43.42 -194.51,50.5 -183.76,50.5 -191.95,56.08 
	-183.76,68.87 -194,65.6 -204.75,74.83 "/>
<polygon class="st1" points="20.76,20.49 27.58,9.33 33.68,20.49 43.37,24.43 36.23,28.13 32.07,43.67 25.73,37.59 19.32,43.67 
	14.66,33.34 7.48,26.5 "/>
<polygon class="st1" points="-55.56,61.87 -67.88,59.21 -61.12,51.64 -69.42,36.37 -56.58,45.91 -47.1,36.13 -47.95,48.37 
	-36.81,55.04 -45.59,56.45 -47.04,66.89 "/>
</svg>
