<?xml version="1.0" encoding="utf-8"?>
<!-- Generator: Adobe Illustrator 27.8.1, SVG Export Plug-In . SVG Version: 6.00 Build 0)  -->
<svg version="1.1" id="Layer_1" xmlns="http://www.w3.org/2000/svg" xmlns:xlink="http://www.w3.org/1999/xlink" x="0px" y="0px"
	 viewBox="0 0 50 50" style="enable-background:new 0 0 50 50;" xml:space="preserve">
<style type="text/css">
	.st0{fill:none;stroke:#FFE100;stroke-width:3;stroke-miterlimit:10;}
	.st1{fill:#FFE100;stroke:#FFE100;stroke-miterlimit:10;}
</style>
<polygon class="st0" points="20.59,18.81 23.46,9.92 31.14,23.16 40.58,25.83 31.27,30.65 29.28,37.43 22.5,32.19 12.94,40.51 
	15.1,27.56 9.24,16.77 "/>
<polygon class="st0" points="-250.11,-147.48 -239.35,-149.78 -231.11,-157.83 -222.11,-147.48 -212.11,-145.19 -223.5,-138.29 
	-221.66,-123.92 -231.27,-135.42 -241.5,-127.37 -241.5,-138.16 "/>
<polygon class="st0" points="-285.94,-131.26 -298.5,-137.49 -285.94,-146.21 -284.68,-156.58 -278.53,-149.5 -267.78,-149.5 
	-275.97,-143.92 -267.78,-131.13 -278.02,-134.4 -288.77,-125.17 "/>
<polygon class="st0" points="-180.26,-149.84 -173.44,-161 -167.34,-149.84 -157.65,-145.91 -164.79,-142.2 -168.95,-126.66 
	-175.29,-132.74 -181.7,-126.66 -186.36,-136.99 -193.54,-143.83 "/>
<polygon class="st0" points="-125.58,-126.46 -137.9,-129.12 -131.14,-136.69 -139.44,-151.96 -126.6,-142.42 -117.12,-152.21 
	-117.97,-139.96 -106.83,-133.29 -115.61,-131.88 -117.06,-121.44 "/>
<polygon class="st1" points="20.61,18.14 23.48,9.26 31.16,22.5 40.6,25.16 31.29,29.98 29.3,36.76 22.52,31.52 12.96,39.84 
	15.12,26.9 9.26,16.11 "/>
<polygon class="st1" points="-250.11,-99.15 -239.35,-101.45 -231.11,-109.5 -222.11,-99.15 -212.11,-96.85 -223.5,-89.96 
	-221.66,-75.59 -231.27,-87.08 -241.5,-79.04 -241.5,-89.82 "/>
<polygon class="st1" points="-278.92,-83.26 -291.48,-89.49 -278.92,-98.21 -277.66,-108.58 -271.51,-101.5 -260.76,-101.5 
	-268.95,-95.92 -260.76,-83.13 -271,-86.4 -281.75,-77.17 "/>
<polygon class="st1" points="-180.24,-100.51 -173.42,-111.67 -167.32,-100.51 -157.63,-96.57 -164.77,-92.87 -168.93,-77.33 
	-175.27,-83.41 -181.68,-77.33 -186.34,-87.66 -193.52,-94.5 "/>
<polygon class="st1" points="-125.56,-82.13 -137.88,-84.79 -131.12,-92.36 -139.42,-107.63 -126.58,-98.09 -117.1,-107.87 
	-117.95,-95.63 -106.81,-88.96 -115.59,-87.55 -117.04,-77.11 "/>
</svg>
