<?xml version="1.0" encoding="utf-8"?>
<!-- Generator: Adobe Illustrator 27.8.1, SVG Export Plug-In . SVG Version: 6.00 Build 0)  -->
<svg version="1.1" id="Layer_1" xmlns="http://www.w3.org/2000/svg" xmlns:xlink="http://www.w3.org/1999/xlink" x="0px" y="0px"
	 viewBox="0 0 50 50" style="enable-background:new 0 0 50 50;" xml:space="preserve">
<style type="text/css">
	.st0{fill:none;stroke:#FFE100;stroke-width:3;stroke-miterlimit:10;}
	.st1{fill:#FFE100;stroke:#FFE100;stroke-miterlimit:10;}
</style>
<polygon class="st0" points="-250.41,-0.19 -247.54,-9.08 -239.86,4.16 -230.42,6.83 -239.73,11.65 -241.72,18.43 -248.5,13.19 
	-258.06,21.51 -255.9,8.56 -261.76,-2.23 "/>
<polygon class="st0" points="5.89,18.52 16.65,16.22 24.89,8.17 33.89,18.52 43.89,20.81 32.5,27.71 34.34,42.08 24.73,30.58 
	14.5,38.63 14.5,27.84 "/>
<polygon class="st0" points="-208.94,20.74 -221.5,14.51 -208.94,5.79 -207.68,-4.58 -201.53,2.5 -190.78,2.5 -198.97,8.08 
	-190.78,20.87 -201.02,17.6 -211.77,26.83 "/>
<polygon class="st0" points="-98.26,3.16 -91.44,-8 -85.34,3.16 -75.65,7.09 -82.79,10.8 -86.95,26.34 -93.29,20.26 -99.7,26.34 
	-104.36,16.01 -111.54,9.17 "/>
<polygon class="st0" points="-56.58,20.54 -68.9,17.88 -62.14,10.31 -70.44,-4.96 -57.6,4.58 -48.12,-5.21 -48.97,7.04 
	-37.83,13.71 -46.61,15.12 -48.06,25.56 "/>
<polygon class="st1" points="-245.39,53.14 -242.52,44.26 -234.84,57.5 -225.4,60.16 -234.71,64.98 -236.7,71.76 -243.48,66.52 
	-253.04,74.84 -250.88,61.9 -256.74,51.11 "/>
<polygon class="st1" points="5.89,18.85 16.65,16.55 24.89,8.5 33.89,18.85 43.89,21.15 32.5,28.04 34.34,42.41 24.73,30.92 
	14.5,38.96 14.5,28.18 "/>
<polygon class="st1" points="-201.92,68.74 -214.48,62.51 -201.92,53.79 -200.66,43.42 -194.51,50.5 -183.76,50.5 -191.95,56.08 
	-183.76,68.87 -194,65.6 -204.75,74.83 "/>
<polygon class="st1" points="-97.24,44.49 -90.42,33.33 -84.32,44.49 -74.63,48.43 -81.77,52.13 -85.93,67.67 -92.27,61.59 
	-98.68,67.67 -103.34,57.34 -110.52,50.5 "/>
<polygon class="st1" points="-55.56,61.87 -67.88,59.21 -61.12,51.64 -69.42,36.37 -56.58,45.91 -47.1,36.13 -47.95,48.37 
	-36.81,55.04 -45.59,56.45 -47.04,66.89 "/>
</svg>
